<svg width="90" height="25" viewBox="0 0 90 25" fill="none" xmlns="http://www.w3.org/2000/svg">
<path d="M2.8 13.56L2.848 8.712C2.848 4.92 2.664 2.776 2.296 2.28C2.12 2.056 2.032 1.904 2.032 1.824C2.032 1.728 2.136 1.624 2.344 1.512C2.568 1.384 2.992 1.248 3.616 1.104C4.24 0.959999 4.792 0.887999 5.272 0.887999C5.752 0.887999 5.992 0.999999 5.992 1.224L5.944 1.536C5.752 3.264 5.656 4.952 5.656 6.6C5.656 8.248 5.704 10.088 5.8 12.12C5.896 14.152 5.944 15.648 5.944 16.608C5.944 17.904 5.44 19.016 4.432 19.944C3.44 20.888 2.256 21.4 0.88 21.48C0.608 21.448 0.472 21.352 0.472 21.192C0.472 21.08 0.512 20.992 0.592 20.928C0.656 20.864 0.736 20.784 0.832 20.688C0.928 20.592 1.104 20.344 1.36 19.944C1.616 19.544 1.84 19.088 2.032 18.576C2.224 18.08 2.4 17.384 2.56 16.488C2.72 15.592 2.8 14.616 2.8 13.56ZM10.0017 8.952C9.58569 8.968 9.28169 8.984 9.08969 9C8.91369 9 8.82569 8.952 8.82569 8.856C8.82569 8.76 8.87369 8.664 8.96969 8.568C9.99369 7.624 11.7217 7.152 14.1537 7.152C14.9857 7.152 15.6417 7.224 16.1217 7.368L16.3617 7.44C16.5537 7.52 16.6497 7.608 16.6497 7.704C16.6497 7.784 16.5937 7.848 16.4817 7.896C16.0497 8.024 15.6337 8.232 15.2337 8.52C14.8337 8.792 14.6337 8.984 14.6337 9.096L14.7777 9.264C15.2897 9.552 15.6817 10.008 15.9537 10.632C16.2417 11.256 16.4017 11.808 16.4337 12.288L16.4817 13.032C16.4817 14.616 16.0417 15.92 15.1617 16.944C14.2817 17.968 13.0817 18.48 11.5617 18.48C10.7937 18.48 10.1297 18.344 9.56969 18.072C9.00969 17.8 8.59369 17.496 8.32169 17.16C8.06569 16.808 7.85769 16.416 7.69769 15.984C7.50569 15.392 7.40969 14.784 7.40969 14.16C7.40969 13.52 7.51369 12.88 7.72169 12.24C7.94569 11.6 8.19369 11.128 8.46569 10.824C8.75369 10.52 9.07369 10.272 9.42569 10.08C9.87369 9.84 10.2337 9.72 10.5057 9.72C10.7777 9.72 10.9137 9.776 10.9137 9.888L10.7697 10.128C10.4177 10.544 10.1617 11.088 10.0017 11.76C9.85769 12.432 9.78569 13.032 9.78569 13.56C9.78569 14.072 9.84969 14.584 9.97769 15.096C10.1057 15.608 10.2497 15.992 10.4097 16.248C10.5697 16.488 10.7537 16.672 10.9617 16.8C11.2657 16.992 11.5857 17.088 11.9217 17.088C12.2577 17.088 12.5857 16.96 12.9057 16.704C13.2257 16.432 13.4577 16.08 13.6017 15.648C13.8897 14.848 14.0337 14.024 14.0337 13.176C14.0337 11.832 13.6897 10.792 13.0017 10.056C12.3297 9.32 11.3297 8.952 10.0017 8.952ZM21.9758 24.648C21.9758 24.84 21.8798 24.936 21.6878 24.936H21.6638C21.1358 24.936 20.5358 24.752 19.8638 24.384C19.2078 24.016 18.8798 23.592 18.8798 23.112C18.8798 22.632 19.1838 21.792 19.7918 20.592C20.3998 19.408 20.7038 18.616 20.7038 18.216C20.7038 17.784 20.4958 17.008 20.0798 15.888C19.5518 14.432 19.1278 13.248 18.8078 12.336C18.5038 11.424 18.1678 10.624 17.7998 9.936C17.4478 9.232 17.1918 8.816 17.0318 8.688L16.7918 8.52C16.6158 8.424 16.5278 8.32 16.5278 8.208C16.5278 7.984 16.8718 7.76 17.5598 7.536C18.2638 7.296 18.8798 7.176 19.4078 7.176C19.6478 7.176 19.8478 7.368 20.0078 7.752C20.2958 8.504 20.6078 9.544 20.9438 10.872C21.7598 13.592 22.2718 14.952 22.4798 14.952C22.6238 14.952 22.9118 14.392 23.3438 13.272C23.7918 12.152 24.0158 11.248 24.0158 10.56C24.0158 9.36 23.6638 8.656 22.9598 8.448C22.7998 8.416 22.7198 8.336 22.7198 8.208C22.7198 7.92 23.0958 7.648 23.8478 7.392C24.5998 7.12 25.2798 6.984 25.8878 6.984C26.4158 6.984 26.6798 7.328 26.6798 8.016C26.6798 8.544 26.5678 9.16 26.3438 9.864C26.1198 10.568 25.9118 11.128 25.7198 11.544C25.5278 11.944 25.0478 12.888 24.2798 14.376C23.5278 15.848 22.9038 17.144 22.4078 18.264C21.8638 19.608 21.5918 20.976 21.5918 22.368C21.5918 23.104 21.6558 23.656 21.7838 24.024C21.9118 24.392 21.9758 24.6 21.9758 24.648ZM36.4084 2.448C36.1204 2.448 35.8724 2.496 35.6644 2.592C35.4564 2.688 35.3524 2.808 35.3524 2.952C35.1604 3.624 35.0644 5.632 35.0644 8.976C35.0644 12.304 35.0564 14.168 35.0404 14.568C35.3444 15.048 35.8164 15.288 36.4564 15.288C37.5924 15.288 38.4484 14.664 39.0244 13.416C39.6004 12.152 39.8884 10.576 39.8884 8.688C39.8884 6.784 39.6084 5.272 39.0484 4.152C38.4884 3.016 37.6084 2.448 36.4084 2.448ZM31.8244 18.264C31.5844 18.232 31.4644 18.16 31.4644 18.048L31.5364 17.76C31.9364 16.896 32.1364 13.784 32.1364 8.424C32.1364 5.864 32.0644 4.264 31.9204 3.624C31.7924 2.984 31.6884 2.576 31.6084 2.4L31.4884 2.16C31.4244 2.096 31.3924 2.008 31.3924 1.896C31.3924 1.768 31.4884 1.664 31.6804 1.584C32.9284 1.088 34.5684 0.839999 36.6004 0.839999C40.8724 0.839999 43.0084 3.56 43.0084 9C43.0084 11.128 42.6324 13.072 41.8804 14.832C41.5764 15.504 41.2244 16.088 40.8244 16.584C40.4244 17.064 39.8964 17.472 39.2404 17.808C38.6004 18.128 37.8884 18.288 37.1044 18.288C36.9444 18.272 36.7364 18.248 36.4804 18.216C36.2404 18.184 35.8724 18.064 35.3764 17.856C34.8964 17.648 34.5684 17.376 34.3924 17.04C33.8004 17.856 32.9444 18.264 31.8244 18.264ZM51.2738 14.712C51.2738 15.4 51.1378 16 50.8658 16.512C50.6098 17.024 50.3138 17.4 49.9778 17.64C49.6418 17.88 49.2418 18.072 48.7778 18.216C48.1698 18.408 47.6178 18.504 47.1218 18.504C46.0818 18.504 45.2178 18.304 44.5298 17.904C43.8418 17.488 43.4978 16.832 43.4978 15.936C43.4978 15.408 43.6418 14.976 43.9298 14.64C44.3778 14.144 44.9138 13.896 45.5378 13.896C45.7298 13.896 45.8258 13.984 45.8258 14.16C45.8258 14.176 45.7858 14.304 45.7058 14.544C45.6418 14.768 45.6098 15.056 45.6098 15.408C45.6098 15.76 45.7458 16.072 46.0178 16.344C46.3058 16.616 46.6498 16.752 47.0498 16.752C47.4498 16.752 47.7698 16.688 48.0098 16.56C48.2498 16.416 48.4178 16.24 48.5138 16.032C48.6578 15.744 48.7298 15.472 48.7298 15.216C48.7298 14.752 48.4978 14.352 48.0338 14.016C47.5698 13.68 47.0578 13.416 46.4978 13.224C45.9378 13.032 45.4258 12.712 44.9618 12.264C44.4978 11.816 44.2658 11.256 44.2658 10.584C44.2658 9.432 44.6258 8.568 45.3458 7.992C46.0818 7.416 47.0738 7.128 48.3218 7.128C48.8658 7.128 49.4338 7.208 50.0258 7.368C50.6338 7.512 50.9378 7.768 50.9378 8.136C50.9378 8.488 50.8738 8.816 50.7458 9.12C50.6338 9.424 50.4898 9.576 50.3138 9.576C50.2178 9.576 50.1538 9.544 50.1218 9.48C50.0898 9.4 50.0338 9.312 49.9538 9.216C49.8738 9.12 49.6818 9 49.3778 8.856C49.0738 8.696 48.8098 8.616 48.5858 8.616C48.3778 8.616 48.2338 8.624 48.1538 8.64C48.0898 8.64 47.9698 8.664 47.7938 8.712C47.6178 8.744 47.4578 8.8 47.3138 8.88C46.9458 9.088 46.7618 9.392 46.7618 9.792C46.7618 10.048 46.8178 10.24 46.9298 10.368C47.0418 10.48 47.1298 10.568 47.1938 10.632C47.2578 10.696 47.3698 10.776 47.5298 10.872C47.6898 10.952 47.8018 11.008 47.8658 11.04C47.9298 11.072 48.0738 11.144 48.2978 11.256C48.5218 11.352 48.6658 11.416 48.7298 11.448C50.4258 12.248 51.2738 13.336 51.2738 14.712ZM54.5798 8.952C54.1638 8.968 53.8598 8.984 53.6678 9C53.4918 9 53.4038 8.952 53.4038 8.856C53.4038 8.76 53.4518 8.664 53.5478 8.568C54.5718 7.624 56.2998 7.152 58.7318 7.152C59.5638 7.152 60.2198 7.224 60.6998 7.368L60.9398 7.44C61.1318 7.52 61.2278 7.608 61.2278 7.704C61.2278 7.784 61.1718 7.848 61.0598 7.896C60.6278 8.024 60.2118 8.232 59.8118 8.52C59.4118 8.792 59.2118 8.984 59.2118 9.096L59.3558 9.264C59.8678 9.552 60.2598 10.008 60.5318 10.632C60.8198 11.256 60.9798 11.808 61.0118 12.288L61.0598 13.032C61.0598 14.616 60.6198 15.92 59.7398 16.944C58.8598 17.968 57.6598 18.48 56.1398 18.48C55.3718 18.48 54.7078 18.344 54.1478 18.072C53.5878 17.8 53.1718 17.496 52.8998 17.16C52.6438 16.808 52.4358 16.416 52.2758 15.984C52.0838 15.392 51.9878 14.784 51.9878 14.16C51.9878 13.52 52.0918 12.88 52.2998 12.24C52.5238 11.6 52.7718 11.128 53.0438 10.824C53.3318 10.52 53.6518 10.272 54.0038 10.08C54.4518 9.84 54.8118 9.72 55.0838 9.72C55.3558 9.72 55.4918 9.776 55.4918 9.888L55.3478 10.128C54.9958 10.544 54.7398 11.088 54.5798 11.76C54.4358 12.432 54.3638 13.032 54.3638 13.56C54.3638 14.072 54.4278 14.584 54.5558 15.096C54.6838 15.608 54.8278 15.992 54.9878 16.248C55.1478 16.488 55.3318 16.672 55.5398 16.8C55.8438 16.992 56.1638 17.088 56.4998 17.088C56.8358 17.088 57.1638 16.96 57.4838 16.704C57.8038 16.432 58.0358 16.08 58.1798 15.648C58.4678 14.848 58.6118 14.024 58.6118 13.176C58.6118 11.832 58.2678 10.792 57.5798 10.056C56.9078 9.32 55.9078 8.952 54.5798 8.952ZM70.8019 7.32C70.5139 9.048 70.3699 11.248 70.3699 13.92C70.3699 15.888 70.4499 17.184 70.6099 17.808L70.7059 18.12C70.7059 18.328 70.5299 18.432 70.1779 18.432C68.9459 18.432 68.2419 18.088 68.0659 17.4C68.0499 17.32 68.0099 17.28 67.9459 17.28C67.8979 17.28 67.8499 17.312 67.8019 17.376C67.3059 18.032 66.5379 18.36 65.4979 18.36C64.9219 18.36 64.3219 18.216 63.6979 17.928C63.3139 17.752 63.0019 17.448 62.7619 17.016C62.5219 16.568 62.4019 16.024 62.4019 15.384L62.7619 10.128C62.7619 9.024 62.6499 8.24 62.4259 7.776C62.3459 7.6 62.3059 7.488 62.3059 7.44C62.3059 7.344 62.3459 7.28 62.4259 7.248C62.6819 7.168 63.0099 7.128 63.4099 7.128C64.9619 7.128 65.7379 7.768 65.7379 9.048C65.7379 9.448 65.5699 10.36 65.2339 11.784C64.9139 13.208 64.7539 14.224 64.7539 14.832C64.7539 15.424 64.8819 15.88 65.1379 16.2C65.4099 16.52 65.7779 16.68 66.2419 16.68C66.7219 16.68 67.0979 16.512 67.3699 16.176C67.6419 15.84 67.8019 15.504 67.8499 15.168L67.9219 14.664C67.9859 14.104 68.0179 13.12 68.0179 11.712C68.0179 10.304 67.9699 9.416 67.8739 9.048C67.7939 8.664 67.7539 8.424 67.7539 8.328C67.7539 7.928 68.0739 7.616 68.7139 7.392C69.3539 7.152 69.9299 7.032 70.4419 7.032C70.6819 7.032 70.8019 7.128 70.8019 7.32ZM77.3142 7.44L79.9302 7.368C80.1382 7.368 80.2422 7.456 80.2422 7.632C80.2422 7.952 79.7382 8.896 78.7302 10.464C77.7222 12.032 76.8422 13.4 76.0902 14.568C75.3542 15.736 74.9862 16.44 74.9862 16.68C74.9862 16.84 75.2102 16.92 75.6582 16.92C76.1062 16.92 76.4982 16.856 76.8342 16.728C77.1702 16.584 77.4182 16.4 77.5782 16.176C77.8502 15.792 77.9862 15.44 77.9862 15.12C77.9862 14.8 77.9542 14.488 77.8902 14.184C77.8902 13.992 78.0662 13.88 78.4182 13.848C79.2502 13.848 79.8022 14.08 80.0742 14.544C80.2822 14.912 80.3862 15.288 80.3862 15.672C80.3862 16.536 80.0342 17.184 79.3302 17.616C78.6262 18.048 77.7942 18.264 76.8342 18.264L74.0982 18.192L71.6742 18.24C71.3862 18.24 71.2422 18.144 71.2422 17.952C71.2422 17.744 71.4982 17.216 72.0102 16.368C72.5382 15.52 73.0662 14.72 73.5942 13.968L74.3862 12.84C75.7302 10.728 76.4422 9.592 76.5222 9.432C76.6182 9.256 76.6662 9.104 76.6662 8.976C76.6662 8.752 76.4342 8.64 75.9702 8.64C75.5062 8.64 75.0822 8.704 74.6982 8.832C74.3302 8.96 74.0262 9.12 73.7862 9.312C73.5462 9.488 73.3382 9.672 73.1622 9.864C72.8422 10.216 72.6822 10.44 72.6822 10.536C72.6342 10.696 72.5462 10.776 72.4182 10.776H72.3942C72.1702 10.776 72.0582 10.64 72.0582 10.368C72.0582 9.744 72.2022 9.008 72.4902 8.16L72.6582 7.728C72.7222 7.504 72.8902 7.392 73.1622 7.392L77.3142 7.44ZM89.1188 10.8L89.0708 13.872C89.0708 16 89.3028 17.28 89.7668 17.712C89.8308 17.776 89.8628 17.848 89.8628 17.928C89.8628 18.168 89.3428 18.288 88.3028 18.288C87.2788 18.288 86.7348 17.984 86.6708 17.376C86.6548 17.232 86.6468 16.936 86.6468 16.488L86.7428 12.648C86.7428 12.536 86.6788 12.48 86.5508 12.48C85.7828 12.48 85.0628 12.696 84.3908 13.128C83.7188 13.56 83.3828 14.112 83.3828 14.784C83.3828 15.136 83.4788 15.432 83.6708 15.672C83.8628 15.912 84.0948 16.032 84.3668 16.032C84.6548 16.032 84.8868 15.976 85.0628 15.864C85.2548 15.752 85.3668 15.688 85.3988 15.672C85.6708 15.704 85.8068 15.992 85.8068 16.536C85.8068 17.064 85.5588 17.496 85.0628 17.832C84.5668 18.152 84.0468 18.312 83.5028 18.312C82.9588 18.312 82.4868 18.216 82.0868 18.024C81.7028 17.832 81.4228 17.616 81.2468 17.376C81.0708 17.136 80.9268 16.864 80.8148 16.56C80.7028 16.192 80.6468 15.872 80.6468 15.6C80.6468 14.48 80.9988 13.584 81.7028 12.912C82.4068 12.24 83.3108 11.76 84.4148 11.472C85.8708 11.184 86.6308 10.92 86.6948 10.68C86.7428 10.504 86.7668 10.208 86.7668 9.792C86.7668 8.944 86.3348 8.52 85.4708 8.52C85.1028 8.52 84.7748 8.64 84.4868 8.88C84.1988 9.104 84.0548 9.392 84.0548 9.744L84.1988 10.32C84.1668 10.592 83.8788 10.752 83.3348 10.8L83.0708 10.824C82.5908 10.824 82.2068 10.704 81.9188 10.464C81.6468 10.224 81.5108 9.904 81.5108 9.504C81.5108 9.248 81.5908 8.968 81.7508 8.664C81.9268 8.344 82.1428 8.088 82.3988 7.896C82.6548 7.704 83.0468 7.536 83.5748 7.392C84.1188 7.232 84.6388 7.152 85.1348 7.152C85.6308 7.152 86.0148 7.168 86.2868 7.2C86.5588 7.232 86.9268 7.312 87.3908 7.44C87.8708 7.552 88.2628 7.776 88.5668 8.112C88.8868 8.448 89.0548 8.808 89.0708 9.192C89.1028 9.56 89.1188 10.096 89.1188 10.8Z" fill="#1E3D59"/>
</svg>
